<svg xmlns="http://www.w3.org/2000/svg" viewBox="0 0 234.786 220.517">
  <g data-name="Layer 2">
    <g fill="#0c0b0b" data-name="Layer 1">
      <path d="M58.243 219.092H5.323c-.4-.611-1.76-.513-3.06-1.613a6.852 6.852 0 0 1-2-4.178V9.217c-.876-3.5.5-7.259 3.22-8.8a5.194 5.194 0 0 1 6.48 2.2l109.52 134.152 20.88-24.777 9.12 11.142-26.2 32.25a7.048 7.048 0 0 1-4.32 1.026 8.534 8.534 0 0 1-6-3.959l-102.24-134 3.24 183.533h36.26v-69.638c.45-2.639 1.46-5.278 3.34-6.6a4.511 4.511 0 0 1 6.12.88l59.76 70.862 46.08-54.979 10.08 12.315-49.4 61.088a7.73 7.73 0 0 1-6 3.225 8.1 8.1 0 0 1-6.48-4.105l-47.52-61.573-1.48 58.5a8.234 8.234 0 0 1-2.16 4.692c-1.82 1.879-3.86 1.818-4.32 2.441Z" data-name="Path 60"/>
      <path d="m176.887 1.635 52.91.781a4.059 4.059 0 0 1 3.05.988 6.292 6.292 0 0 1 1.94 4.209l-2 203.753c.92 3.189-.2 6.722-2.638 8.327s-5.473.806-7.152-1.885q-54-67.787-108.11-135.563l-21.12 24.511-9-11.256 26.47-31.82a7.077 7.077 0 0 1 4.33-.964 8.6 8.6 0 0 1 6 4.038l100.92 135.303-1.49-183.231-36.71-.976-1.05 69.825a6.8 6.8 0 0 1-2.687 6.632 4.486 4.486 0 0 1-6-1.044l-59.063-71.582L68.867 75.9l-10-12.445 50-60.321A7.657 7.657 0 0 1 114.937 0a8.183 8.183 0 0 1 6.44 4.2l46.91 62.224 2-58.393a8.11 8.11 0 0 1 2.2-4.648 5.63 5.63 0 0 1 4.4-1.745Z" data-name="Path 61"/>
    </g>
  </g>
</svg>
